<svg width="72" height="88" viewBox="0 0 72 88" fill="none" xmlns="http://www.w3.org/2000/svg" aria-hidden="true">
  <path
    d="M18 6h34a4 4 0 0 1 4 4v52a4 4 0 0 1-4 4H26l-10 14V10a4 4 0 0 1 4-4z"
    stroke="#302C4D"
    stroke-width="4"
    stroke-linejoin="round"
  />
  <path
    d="M52 6v9a5 5 0 0 0 5 5h5"
    stroke="#302C4D"
    stroke-width="4"
    stroke-linecap="round"
    stroke-linejoin="round"
  />
  <path d="M24 24h16" stroke="#302C4D" stroke-width="3.5" stroke-linecap="round" />
  <path d="M24 34h11" stroke="#302C4D" stroke-width="3.5" stroke-linecap="round" />
  <path d="M24 44h18" stroke="#302C4D" stroke-width="3.5" stroke-linecap="round" />
  <circle cx="44" cy="24" r="2.5" fill="#302C4D" />
  <circle cx="44" cy="34" r="2.5" fill="#302C4D" />
  <path d="M24 52h24" stroke="#302C4D" stroke-width="3" stroke-linecap="round" />
  <rect x="34" y="58" width="18" height="8" rx="4" stroke="#302C4D" stroke-width="3" />
</svg>
